<svg xmlns="http://www.w3.org/2000/svg" viewBox="0 0 209.97 85.36"><defs><style>.cls-1{fill:#535353;}</style></defs><g id="Layer_2" data-name="Layer 2"><g id="Layer_1-2" data-name="Layer 1"><path class="cls-1" d="M84.73,35.19C82,32.12,78.37,30,75.08,27.56c-3.62-2.65-8.25-5.07-9.44-9.69a5.76,5.76,0,0,0,1-2.12c.86-4.07-3.27-8.1-7.13-8.07a1.29,1.29,0,0,0-.19,0h-.1a90.23,90.23,0,0,0-10.07,2.63,1,1,0,0,0,0-.44,5.12,5.12,0,0,0-5-4.78c-2.34-.16-4.38,1-6.41,2.06C39,2.94,33.61-2.18,29.28,1a5.66,5.66,0,0,0-2.11,3.35,4.93,4.93,0,0,0-6-.06,5.72,5.72,0,0,0-1.65,7.1A5.31,5.31,0,0,0,23.63,14c-2.77,1-6.21,1.11-8.42,3a4,4,0,0,0-.77,5.32c-.64.16-1.28.32-1.93.46-4.2.91-10.5,2.33-12.12,7-1.18,3.42.36,6.58,3.94,6.92l.47,0a1.24,1.24,0,0,0,0,.16C7.81,46.33,0,54.55,1.28,64c1,6.76,5.56,12.56,11.29,16,13.22,8,31.81,6,45.58.73,12.66-4.83,27.66-14.59,30.59-28.88C90,45.93,88.82,39.77,84.73,35.19ZM46.93,9.91a1.11,1.11,0,0,0,.67.92c-5.06,1.67-10,3.62-15,5.53a.94.94,0,0,0,.06-.86q-.8-2.22-1.61-4.44A8.67,8.67,0,0,0,36,10.48C38.21,9.59,46.32,4,46.93,9.91ZM30.64,2.74c3-2.1,6.76,2.58,4.08,5.1-1.63,1.06-4.35,1-5.24-1A3.51,3.51,0,0,1,30.64,2.74ZM21.4,10.1A3.5,3.5,0,0,1,22.55,6c3-2.1,6.77,2.58,4.09,5.1C25,12.19,22.28,12.13,21.4,10.1ZM16.73,21.29c-2.43-.72.77-3.16,1.53-3.45a20.58,20.58,0,0,1,2.41-.68A26.33,26.33,0,0,0,25,15.82a8.58,8.58,0,0,0,4.12-3.61c.48,1.29.95,2.58,1.42,3.88a1.12,1.12,0,0,0,.86.73c-4.66,1.77-9.35,3.46-14.15,4.79A1.15,1.15,0,0,0,16.73,21.29Zm-1.06,3.12a87,87,0,0,0,13-4.4C38.76,16.08,48.85,12,59.5,9.92l4.11,2.5c-.63,2-1.27,3.92-1.9,5.88-1,1-3.42,1.5-4.7,2-2.62,1-5.26,2-7.92,2.87-5,1.71-10.11,3.23-15.22,4.62C28.44,29.28,23,30.63,17.5,31.92c-2.46.59-4.93,1.19-7.41,1.73A5.14,5.14,0,0,1,7.47,30.4a4.33,4.33,0,0,1,3.64-5.06.26.26,0,0,0,.16-.07C12.78,25,14.3,24.7,15.67,24.41ZM7.42,38.1A8,8,0,0,1,12.14,38h.11a15.11,15.11,0,0,1,.54,1.65,9.83,9.83,0,0,0-5.16-.22Q7.56,38.76,7.42,38.1Zm-.16-.74c-.06-.24-.12-.47-.19-.71a33.35,33.35,0,0,0,4.08-.9,15.92,15.92,0,0,1,.74,1.41A8.67,8.67,0,0,0,7.26,37.36ZM4.18,28.44A10.64,10.64,0,0,1,8,26.18,4.77,4.77,0,0,0,6.74,30.6,5.92,5.92,0,0,0,9,33.88C5.34,34.57-1.33,33.82,4.18,28.44Zm0,27.4C5.68,50.45,8,45.55,7.7,40.18a9,9,0,0,1,5,.21.33.33,0,0,0,.31,0c2.29,9.85-4.11,20.78.11,30.74a21.89,21.89,0,0,0,3.16,5.25L6.5,71.2A18.86,18.86,0,0,1,4.22,55.84ZM7.45,72.55l9.85,5.2a.39.39,0,0,0,.23,0,22.7,22.7,0,0,0,2.37,2.12,37,37,0,0,1-7.95-3A21.94,21.94,0,0,1,7.45,72.55ZM21.4,81q.71.45,1.44.87a35,35,0,0,1-5.61-1.92A40,40,0,0,0,21.16,81,.38.38,0,0,0,21.4,81ZM57.56,78.6c-9.31,3.56-21,5.67-31.54,3.91A21.51,21.51,0,0,1,12.31,61.19c.51-8.73,4.19-17.62-.4-25.64.55-.15,1.09-.29,1.62-.41,4.26-1,8.52-2,12.76-3.06a279.25,279.25,0,0,0,26.93-8c2.87-1,7.64-2.12,10.67-4.42,1.55,4,5.23,6.23,8.69,8.77,6.63,4.87,14.11,9.13,14.4,18.29C87.47,62.43,70.5,73.65,57.56,78.6Z"/><path class="cls-1" d="M43.91,20.83c0,.48.74.48.76,0a4.28,4.28,0,0,0-.8-2.7c-.29-.39-.94,0-.66.38A3.56,3.56,0,0,1,43.91,20.83Z"/><path class="cls-1" d="M46.94,18.72l-.24-1.51c-.07-.47-.8-.27-.72.2s.15,1,.23,1.51S47,19.19,46.94,18.72Z"/><path class="cls-1" d="M48.55,17.7a.38.38,0,0,0,0-.76A.38.38,0,0,0,48.55,17.7Z"/><path class="cls-1" d="M52.8,16.7a.38.38,0,0,0,0-.76A.38.38,0,0,0,52.8,16.7Z"/><path class="cls-1" d="M57.42,16l3.9-1.32c.45-.15.26-.88-.21-.73l-3.89,1.32C56.76,15.39,57,16.12,57.42,16Z"/><path class="cls-1" d="M10.91,30.33a.91.91,0,0,1-.32-1.4c.32-.36-.21-.9-.53-.53A1.67,1.67,0,0,0,10.53,31C11,31.19,11.35,30.54,10.91,30.33Z"/><path class="cls-1" d="M12.48,29.1l.25.25a.38.38,0,0,0,.54-.53L13,28.57C12.67,28.23,12.14,28.76,12.48,29.1Z"/><path class="cls-1" d="M14.75,28.46a.38.38,0,0,0,0-.75A.38.38,0,0,0,14.75,28.46Z"/><path class="cls-1" d="M8.59,43.22a4.5,4.5,0,0,1,2.81,0c.46.15.66-.58.2-.73a5.18,5.18,0,0,0-3.21,0C7.93,42.64,8.13,43.37,8.59,43.22Z"/><path class="cls-1" d="M11.5,45.23h-.75a.38.38,0,0,0,0,.76h.75A.38.38,0,0,0,11.5,45.23Z"/><path class="cls-1" d="M10.36,48.71l-.75-.24c-.47-.15-.67.58-.21.73l.76.24C10.62,49.59,10.82,48.86,10.36,48.71Z"/><path class="cls-1" d="M10.75,51a.38.38,0,0,0,0-.75A.38.38,0,0,0,10.75,51Z"/><path class="cls-1" d="M7.3,70l3.51,1.75c.43.22.81-.44.38-.65L7.68,69.31C7.25,69.1,6.87,69.75,7.3,70Z"/><path class="cls-1" d="M8.85,68.24c-.46-.15-.66.58-.2.73l.76.25c.46.15.66-.58.2-.73Z"/><path class="cls-1" d="M8.49,66a.38.38,0,0,0,0-.75A.38.38,0,0,0,8.49,66Z"/><path class="cls-1" d="M17.67,36.92a3.48,3.48,0,0,1,2.22,2.28.37.37,0,0,0,.72-.2,4.27,4.27,0,0,0-2.74-2.81C17.41,36,17.21,36.77,17.67,36.92Z"/><path class="cls-1" d="M22.57,37.67c.41.27.79-.38.38-.65l-1.5-1c-.4-.27-.78.38-.38.65Z"/><path class="cls-1" d="M24.82,36.92c.41.27.79-.38.39-.65l-.76-.5c-.4-.27-.78.38-.38.65Z"/><path class="cls-1" d="M37.06,33.81a.38.38,0,0,0-.53.54l.5.5a.38.38,0,0,0,.53-.54Z"/><path class="cls-1" d="M47.37,31.4l-.75-1c-.29-.39-.94,0-.65.38l.75,1C47,32.17,47.66,31.79,47.37,31.4Z"/><path class="cls-1" d="M49.67,30.55c.23.43.88.05.66-.38l-.26-.49c-.23-.43-.88-.05-.66.38Z"/><path class="cls-1" d="M61.71,26.46a.38.38,0,0,0,.2-.73,3.33,3.33,0,0,1-2.26-1.84c-.21-.44-.86-.06-.65.38A4,4,0,0,0,61.71,26.46Z"/><path class="cls-1" d="M62.54,24.61a.38.38,0,0,0,.53-.53l-.5-.5a.38.38,0,0,0-.54.53Z"/><path class="cls-1" d="M65.69,30.84a20.62,20.62,0,0,1-9.23-4.13c-.38-.3-.92.23-.54.53a21.45,21.45,0,0,0,9.57,4.33C66,31.66,66.17,30.93,65.69,30.84Z"/><path class="cls-1" d="M81.27,56.19c-.21.43.44.82.65.38a22.91,22.91,0,0,0,1.8-14.82c-.1-.47-.83-.27-.73.2A22.14,22.14,0,0,1,81.27,56.19Z"/><path class="cls-1" d="M80,52.28l-.51,2c-.11.47.61.68.73.2.17-.66.34-1.33.5-2C80.87,52,80.14,51.81,80,52.28Z"/><path class="cls-1" d="M77.08,57.25a.38.38,0,0,0,0,.75A.38.38,0,0,0,77.08,57.25Z"/><path class="cls-1" d="M28.11,79.08a17,17,0,0,1-10.25-7.65c-.25-.41-.9,0-.65.38a17.82,17.82,0,0,0,10.7,8A.38.38,0,0,0,28.11,79.08Z"/><path class="cls-1" d="M27.58,77.23c.4.27.78-.39.38-.66l-.75-.5c-.41-.27-.79.39-.38.66Z"/><path class="cls-1" d="M32.27,76.52a.38.38,0,0,0,0,.76A.38.38,0,0,0,32.27,76.52Z"/><path class="cls-1" d="M46.61,53.84c-.45-.18-.65.55-.2.73a16.63,16.63,0,0,1,5.43,3.51c.35.34.89-.19.54-.53A17.78,17.78,0,0,0,46.61,53.84Z"/><path class="cls-1" d="M52.57,53.85a.38.38,0,0,0-.54.54l1.26,1.25c.34.34.87-.19.53-.54Z"/><path class="cls-1" d="M55.56,53.24a.38.38,0,0,0,0,.76A.38.38,0,0,0,55.56,53.24Z"/><path class="cls-1" d="M58.75,52.54c-.41-.27-.78.39-.38.65l.75.51c.41.27.78-.39.38-.66Z"/><path class="cls-1" d="M31.61,4.12a2.05,2.05,0,0,1,1.25,1.81c0,.48.78.49.76,0A2.82,2.82,0,0,0,32,3.47C31.56,3.27,31.17,3.92,31.61,4.12Z"/><path class="cls-1" d="M25.24,9.24a2.37,2.37,0,0,0-2.17-1.3.38.38,0,0,0,0,.75,1.6,1.6,0,0,1,1.51.94C24.8,10.06,25.45,9.68,25.24,9.24Z"/><path class="cls-1" d="M25.54,8a.38.38,0,0,0,0-.76A.38.38,0,0,0,25.54,8Z"/><path class="cls-1" d="M41.33,10.32l1.72-.61c.45-.16.25-.89-.21-.72l-1.71.6C40.67,9.75,40.87,10.48,41.33,10.32Z"/><path class="cls-1" d="M45.16,9.09a.38.38,0,0,0,0-.75A.38.38,0,0,0,45.16,9.09Z"/><path class="cls-1" d="M209.65,49c-.65-2.49-1.2,1.79-.94-3.06,0-.91.63-1.36.44-2.38s-1-1.29-1.28-2.08c-.4-1.26.33-1.9.43-3a4,4,0,0,0-.14-2.25c-.27-1-2.31-1.77-1.79-3a.89.89,0,0,0,.06-.61.87.87,0,0,0-.29-1.1h0a1,1,0,0,0-.36-.27c-7.87-6.15-17.53-9.69-25.35-15.79a1.6,1.6,0,0,0-1.08-.29c-25.91,5.44-51.71,11.38-77.28,18.24a.89.89,0,0,0-.36.11l-.18.09a.9.9,0,0,0-.78.78,9.07,9.07,0,0,0,1.34,7.08c-.9,1-.46,2.24-.14,3.84.28,1.44-.31,2.79-.3,4,0,.25-.17.43-.13.71.36,2.22,1.89,4,2,6.38a1,1,0,0,0,.22.59,1.42,1.42,0,0,0,.33.37c8.61,6.29,16.33,14.11,25.73,19.27l0,0a1,1,0,0,0,.82.09c26-7.07,52.64-12.36,78.16-20.93a1,1,0,0,0,.26-.12,1.05,1.05,0,0,0,.73-1C209.9,52.63,210.2,51.12,209.65,49Zm-78,25.18a3.9,3.9,0,0,1-.18-2.3q37.85-11.1,76.4-19.49c-.06.48-.15,1-.23,1.46C182.87,62.17,157,67.4,131.7,74.21Zm47.7-56.75c7.32,5.56,16.15,9,23.61,14.47-24.75,8.13-50.54,13.32-75.66,20.14-8.22-4.65-14.69-11.78-22.48-17.07C129.54,28.44,154.42,22.71,179.4,17.46ZM204,34c.09.79.7,1.25,1.22,1.94a349.54,349.54,0,0,1-38.89,12c-12.32,3-25.26,4.12-37.1,8.81-.51-.84-1.06-1.71-.58-2.38a1,1,0,0,0,.17-.35C153.79,47.24,179.4,42.06,204,34Zm1.47,7.83Q168,53.38,129.74,61.84a2.8,2.8,0,0,1-.26-1.19q38.34-9.23,76.09-20.72A6.55,6.55,0,0,0,205.46,41.78ZM126.81,60.7a123.59,123.59,0,0,1-22-14.29c-.38-1.21-1.32-3.36-.66-3.75l.13-.1c7.46,6,15.16,11.65,22.61,17.63C126.86,60.36,126.83,60.53,126.81,60.7Zm0,.95a.22.22,0,0,1,0,.08c.24,1,.89,1.65,1.12,2.68a4,4,0,0,1,0,1.84c-8.36-5.12-16.44-10.36-23.88-16.81.1-.56.67-1.14.86-1.88A127.34,127.34,0,0,0,126.83,61.65Zm-21.62-9.17a11.31,11.31,0,0,0-.86-1.7,182.36,182.36,0,0,0,23.41,16.35,4,4,0,0,0,0,1c.1,1.16.83,1.59,1.13,2.59h0A199.2,199.2,0,0,1,105.28,52.8C105.26,52.69,105.24,52.59,105.21,52.48Zm25.55,11.26a2.1,2.1,0,0,0-.47-1.17q38.09-8.43,75.36-20c.39.84,1,.28.91,2.79a2.52,2.52,0,0,1-.07.49,453.74,453.74,0,0,1-75.83,19.56A8,8,0,0,0,130.76,63.74Zm74.93-27a4.3,4.3,0,0,1,0,2.32Q168,50.52,129.55,59.77a5.07,5.07,0,0,0,.33-1.6,2,2,0,0,0-.25-.72c11.79-4.62,24.66-5.79,36.91-8.73a348.75,348.75,0,0,0,39.11-12.11ZM126.27,54c-.36,1,.14,1.63.57,2.57-7.9-6.37-16.16-12.28-24-18.7a6.09,6.09,0,0,1-.1-1.66C111,41.58,117.68,49.16,126.27,54Zm1,4a4.66,4.66,0,0,1-.15,1.32c-7.39-5.92-15-11.55-22.41-17.48a1.27,1.27,0,0,0-.3-.91,7.13,7.13,0,0,1-1-1.54C111.19,45.72,119.41,51.6,127.24,58Zm-21.69-3.81a208.19,208.19,0,0,0,23.54,17.69c.08.64.11,1.29.23,2-8.5-5-15.69-12.1-23.6-18C105.69,55.29,105.63,54.73,105.55,54.17Zm102.39-2.6Q169.5,59.91,131.73,71a1.17,1.17,0,0,0-.51-1.23c-.88-.65-.82-2.07-.66-3.46a453.11,453.11,0,0,0,75.69-19.46,2.92,2.92,0,0,0-.08.92C206.27,49.1,207.79,50.12,207.94,51.57Z"/><path class="cls-1" d="M128.64,50c21.9-5.53,43.76-11.23,65.66-16.75a.42.42,0,0,0-.22-.81c-21.9,5.53-43.76,11.23-65.66,16.75A.42.42,0,0,0,128.64,50Z"/><path class="cls-1" d="M115.71,35q30-7.68,60.26-14.1c.52-.11.3-.92-.22-.81q-30.28,6.42-60.26,14.1A.42.42,0,0,0,115.71,35Z"/><path class="cls-1" d="M149.85,33.44c1.23.66,2.58,0,3.78-.31q1.92,2.41,3.68,5c-2.21.21-4.42.29-6.65.28a.42.42,0,0,0,0,.83c1.82,0,8.22.23,12.82-.93l.16.18c.31.33.78-.05.68-.41,2.77-.85,4.64-2.31,4-4.78-1-3.48-6-2.83-8.53-2.46a13,13,0,0,0-1.66.36l-2.21-2.41a24.12,24.12,0,0,1,3.06.06c.54,0,.53-.79,0-.83a29.51,29.51,0,0,0-3.86-.09l-1-1c-.36-.4-1,.19-.59.59l.5.54a10.62,10.62,0,0,0-3,.73c-.32-.36-.63-.73-1-1.09s-1,.19-.59.59.52.59.78.89a4.27,4.27,0,0,0-.94.74A2.11,2.11,0,0,0,149.85,33.44Zm11,4.23c-.84.13-1.68.25-2.53.34q-1.8-2.61-3.76-5.12c1.1-.29,2.17-.58,3.26-.83l4.93,5.37C161.89,37.55,161.09,37.62,160.8,37.67Zm.84-6.24a17.33,17.33,0,0,1,1.91-.09l1,5.56a2.2,2.2,0,0,1-.93.36l-4.95-5.39A22.8,22.8,0,0,1,161.64,31.43Zm-8.35-2.34c.51-.11,1-.19,1.52-.25l2.37,2.59a15.49,15.49,0,0,1-3.13.69l-.13,0c-.72-.89-1.46-1.78-2.21-2.65A12.25,12.25,0,0,1,153.29,29.09ZM153,32.33c-.93-.06-1.72-.85-2.37-2.4l.27-.1C151.6,30.65,152.3,31.49,153,32.33Z"/><path class="cls-1" d="M175.59,25.64a.35.35,0,0,0-.18,0l-.71.1-.88.16a.35.35,0,0,0-.15.07c-1.76.47-3.49,1.46-3.35,3.5.18,2.56,3.17,3.25,5.25,2.93s4.38-2,3.86-4.46C179,26,177.29,25.56,175.59,25.64Zm3,2.29c.56,1.81-1.19,3.2-2.75,3.56s-4.12.18-4.61-1.72c-.57-2.22,2-3,3.7-3.25l.22,0,.19,0C176.66,26.31,178.14,26.46,178.58,27.93Z"/><path class="cls-1" d="M138.63,41.84c2.15-.33,4.38-2,3.86-4.47-.41-1.92-2.14-2.35-3.84-2.28a.5.5,0,0,0-.18,0l-.72.11c-.3,0-.59.1-.87.16a.34.34,0,0,0-.15.06c-1.76.48-3.49,1.47-3.35,3.51C133.56,41.46,136.55,42.15,138.63,41.84Zm-4.35-2.61c-.57-2.22,2-3,3.7-3.25l.22,0,.19,0c1.33-.15,2.8,0,3.25,1.47.56,1.8-1.19,3.2-2.75,3.55S134.77,41.13,134.28,39.23Z"/></g></g></svg>