<svg xmlns="http://www.w3.org/2000/svg" viewBox="0 0 158.28 56.91"><defs><style>.cls-1{fill:#535353;}.cls-2{fill:#545353;}</style></defs><g id="Layer_2" data-name="Layer 2"><g id="Layer_1-2" data-name="Layer 1"><path class="cls-1" d="M47.82,47.38l0,.87c0,.18.29.18.28,0l0-.87C48.09,47.2,47.81,47.2,47.82,47.38Z"/><path class="cls-1" d="M46.89,31l1.23.2c-.54.35-.74.69-.1.92a6.22,6.22,0,0,0,3.2-.39l5.05.85c-.67.25-1.38.45-1.74.55-.16,0-.09.28.07.24a20.73,20.73,0,0,0,2.29-.69l1.32.22c.15,0,.22-.21.06-.24l-1-.16a3.54,3.54,0,0,0,.85-.51l1,.18c.16,0,.23-.21.07-.24l-.91-.16a.64.64,0,0,0,.11-.37c-.06-1.28-3.14-1-3.85-.87a12.77,12.77,0,0,0-1.6.37c-.93-.14-1.87-.26-2.81-.38.38-.14.77-.28,1.16-.4.15-.05.08-.3-.07-.25s-.88.29-1.63.59l-1.12-.14c-.16,0-.16.23,0,.25l.64.08a6.36,6.36,0,0,0-.74.36L47,30.73C46.8,30.71,46.73,31,46.89,31Zm1.82.89c-1,0-.72-.31-.19-.62l2.07.35A8.36,8.36,0,0,1,48.71,31.87Zm8,.51-5-.84.09,0L53,31.13c1.52.22,3,.46,4.56.73A3.24,3.24,0,0,1,56.71,32.38Zm.22-1.63c.8.29,1,.6.84.89-1.39-.25-2.78-.48-4.17-.68A5.59,5.59,0,0,1,56.93,30.75Zm-7.36,0,.14-.06c.92.11,1.84.23,2.75.36l-1.29.39-2.29-.38A7.51,7.51,0,0,1,49.57,30.75Z"/><path class="cls-1" d="M60.14,30.31a3.21,3.21,0,0,1,1.39.45.93.93,0,0,1,.25,1.43.12.12,0,1,0,.17.17A1.09,1.09,0,0,0,62,30.9a2.69,2.69,0,0,0-1.83-.83C60.05,30,60,30.28,60.14,30.31Z"/><path class="cls-1" d="M46.78,33c.16,0,.23-.22.07-.25a3.28,3.28,0,0,1-1.08-.4c-.3-.19-1.08-.71-.72-1.15.1-.13-.08-.31-.18-.18C44.09,32,46.1,32.83,46.78,33Z"/><path class="cls-1" d="M75.26,48.15c-1.59-2.23-6-2.36-8.41-2.48a39,39,0,0,0-4.19,0c0-1.28,0-2.55,0-3.83a2.28,2.28,0,0,0-1-1.79l0-2.18a4.57,4.57,0,0,0,2.32-2v0a0,0,0,0,0,0,0,.29.29,0,0,0,0-.09.43.43,0,0,0,0,0c0-1.24,0-2.46,0-3.7a1.7,1.7,0,0,0-.36-1.47c-1.59-2.23-6-2.36-8.41-2.48-3.28-.17-7-.06-10.08,1.18-.85.33-2,.87-2.2,1.83a.36.36,0,0,0-.05.19c0,.83,0,1.66,0,2.5-1,.36-2.19.91-2.42,1.92a.35.35,0,0,0,0,.18c0,1.55.06,3.09,0,4.65a.28.28,0,0,0,0,.18l0,0,0,0,.06.06c.27.25.57.48.86.7,0,1.5.06,3,0,4.5a.26.26,0,0,0,0,.19s0,0,0,0l0,.06a.17.17,0,0,0,.06.06c3.33,3.06,8.47,3.35,12.81,2.89,0,1.44,0,2.87,0,4.31a.29.29,0,0,0,0,.18l0,0s0,0,0,.05l.06.06c3.1,2.9,8,3.29,12,3,2.54-.2,7.56-.63,8.89-3.31v0s0,0,0,0a.29.29,0,0,0,0-.09.43.43,0,0,0,0,0c0-1.24,0-2.46,0-3.7A1.74,1.74,0,0,0,75.26,48.15Zm-4.51-1.27c1.24.25,3.11.57,3.88,1.69a1.37,1.37,0,0,1,.24.57v.24c-.15,1.28-2.94,2-3.88,2.22-4.35,1.09-8.68,1.39-12.93-.2A5.37,5.37,0,0,1,56,50.15,2,2,0,0,1,56.14,48a2.76,2.76,0,0,1,.73-.36,16.34,16.34,0,0,1,4.25-1A29.93,29.93,0,0,1,70.75,46.88Zm3.09,4.47.39-.21V54a3.39,3.39,0,0,1-.39.27V51.36Zm-.27,3a7.24,7.24,0,0,1-1.07.47l.27-2.94a.09.09,0,0,0,0-.09c.27-.1.55-.22.82-.34v2.85A.07.07,0,0,0,73.57,54.39ZM60.88,45.83V44c.14-.07.27-.15.4-.23v2.05Zm-.27,0-.94.16.15-1.59a6,6,0,0,0,.79-.33Zm-1.22.22a15.17,15.17,0,0,0-2.33.66c0-.54,0-1.08,0-1.62a17.9,17.9,0,0,0,2.46-.58C59.48,45.05,59.43,45.56,59.39,46.08Zm-2.61.76h0a3.63,3.63,0,0,0-2.13,1.61c-.63.07-1.27.12-1.93.15.06-.94.11-1.88.17-2.82a.12.12,0,0,0,0-.09c.83-.06,1.66-.16,2.48-.3l1.47-.24C56.79,45.72,56.78,46.28,56.78,46.84Zm-1.51,3.73a6.67,6.67,0,0,0,.7.57V54a7.46,7.46,0,0,1-.7-.56C55.3,52.45,55.28,51.51,55.27,50.57Zm1,.75a6.12,6.12,0,0,0,.56.31s0,0,0,0L57,54.59c-.25-.14-.48-.28-.71-.43Zm.84.45c.24.12.47.22.68.31h0l.06,0,.76.26,0,2.95a11.85,11.85,0,0,1-1.42-.6Zm4.47-6V43.52a3.9,3.9,0,0,0,.38-.33c0,.84,0,1.68,0,2.53Zm-8.12-.83a18.27,18.27,0,0,1-5.81-.24c-1.35-.31-4.28-1-5.1-2.56,3,1.68,6.86,1.9,10.18,1.65,2.44-.19,7.16-.6,8.71-3C64.06,43.25,54.8,44.78,53.44,44.92ZM41.32,37.53a4.27,4.27,0,0,0,.69.57v2.8c-.24-.17-.47-.36-.7-.56C41.34,39.4,41.33,38.47,41.32,37.53Zm5.82,2.94V40a19.64,19.64,0,0,0,4.47.23s0,0,0,0c-.06.94-.11,1.89-.17,2.83A22.47,22.47,0,0,1,47,42.85a.12.12,0,0,0,.11-.13c0-.29,0-.58,0-.87s-.29-.18-.28,0l0,.87a.13.13,0,0,0,.07.12,16.44,16.44,0,0,1-2-.47l0-2.93a14.36,14.36,0,0,0,1.93.49s0,0,0,0v.52A.14.14,0,0,0,47.14,40.47Zm2.41-3.22c0-.18-.29-.18-.28,0l0,.87a.14.14,0,0,0,.07.12,16,16,0,0,1-2-.47c0-1,0-2,0-3a16.6,16.6,0,0,0,1.94.47.14.14,0,0,0,0,.07v.51a.14.14,0,0,0,.28,0v-.53a20.62,20.62,0,0,0,4.51.23.11.11,0,0,0-.05.1l-.17,2.83a22.43,22.43,0,0,1-4.39-.24.12.12,0,0,0,.11-.13C49.58,37.83,49.56,37.54,49.55,37.25Zm-5.79-4.33a6.67,6.67,0,0,0,.7.57V36.3c-.24-.17-.47-.36-.7-.56C43.79,34.8,43.78,33.86,43.76,32.92Zm1,.75.56.31v0l.15,2.93c-.24-.14-.48-.28-.71-.44Zm1,3.41c-.06-1-.11-2-.16-3,.24.12.48.22.68.31h0l.05,0,.76.26c0,1,0,2,0,3A11.06,11.06,0,0,1,45.74,37.08Zm16.32-.34a7.24,7.24,0,0,1-1.07.47c.09-1,.19-2,.28-2.94a.1.1,0,0,0,0-.09c.27-.1.55-.22.82-.34v2.85S62.06,36.72,62.06,36.74Zm.27-3,.39-.21v2.82a2.7,2.7,0,0,1-.39.27V33.71ZM61,34.27c-.1,1-.19,2-.28,3l-.46.15c-.58.19-1.17.35-1.76.48l0-3c.39-.08.77-.17,1.16-.27s.81-.22,1.31-.39Zm-1.11,6.91V38.49l.39-.11v2.53A2.7,2.7,0,0,1,59.88,41.18ZM58.54,38.9c-.1,1-.19,2-.28,3l-.46.15a16.88,16.88,0,0,1-1.76.48l0-3C56.91,39.37,57.73,39.15,58.54,38.9Zm.28,0a.13.13,0,0,0,0-.1.12.12,0,0,0,0-.05l.77-.16v2.73a.43.43,0,0,0,0,.05,7.62,7.62,0,0,1-1.06.47ZM58.21,38a23.52,23.52,0,0,1-3.43.45l-.62,0c.05-.94.11-1.88.17-2.82a.12.12,0,0,0-.06-.11,28.51,28.51,0,0,0,4-.56Zm-2.42,1.63,0,3a23.34,23.34,0,0,1-3.43.45c-.21,0-.41,0-.62,0,.06-.94.11-1.88.17-2.82a.13.13,0,0,0,0-.06A27.23,27.23,0,0,0,55.79,39.63Zm-11.13-.28c0,1,0,1.95,0,2.93a11.7,11.7,0,0,1-1.41-.6c0-1-.1-2-.16-3l.77.34ZM43,41.54c-.24-.14-.48-.28-.71-.44V38.28l.56.31v0ZM42.32,43a4,4,0,0,0,.7.59v2.8c-.24-.18-.48-.37-.7-.57C42.34,44.92,42.33,44,42.32,43Zm1,.78.55.31h0L44,47.05c-.24-.13-.47-.28-.7-.43Zm.84.45a13.41,13.41,0,0,0,1.53.6l0,2.94a10.42,10.42,0,0,1-1.42-.6ZM61,40.1a2.2,2.2,0,0,1-.4.56V38.3l.43-.14Zm2-4V33.31a3.8,3.8,0,0,0,.38-.29c0,.85,0,1.7,0,2.55A2.47,2.47,0,0,1,63,36.06ZM44.64,30.31a2.62,2.62,0,0,1,.73-.36,15.42,15.42,0,0,1,4.24-1,29.64,29.64,0,0,1,9.63.28c1.24.25,3.11.57,3.88,1.69a1.37,1.37,0,0,1,.24.57v.24c-.15,1.28-2.94,2-3.88,2.21-4.35,1.1-8.67,1.4-12.93-.19a5.49,5.49,0,0,1-2.1-1.25A1.94,1.94,0,0,1,44.64,30.31ZM43,34.52c0,.45,0,.9,0,1.35a.28.28,0,0,0,0,.18s0,0,0,0l0,.05.06.06c2.77,2.58,6.94,3.17,10.68,3.05a22.54,22.54,0,0,1-5,.23,14.92,14.92,0,0,1-5-1.24A5.6,5.6,0,0,1,42,37.1C40.89,35.87,42,35,43,34.52ZM46,47.9c0-1,0-1.95,0-2.93l.18.06a14.77,14.77,0,0,0,1.74.44h0V46a.14.14,0,1,0,.27,0v-.47a19.19,19.19,0,0,0,4.48.2.14.14,0,0,0,0,.07c-.06.94-.11,1.89-.17,2.84A18.84,18.84,0,0,1,46,47.9Zm15,8a.12.12,0,0,0,.11-.13c0-.29,0-.58,0-.87s-.29-.18-.28,0,0,.58,0,.87a.13.13,0,0,0,.07.12,15.56,15.56,0,0,1-2-.47c0-1,0-2,0-3a16.55,16.55,0,0,0,1.94.46.14.14,0,0,0,0,.07v.52a.14.14,0,0,0,.28,0V53s0,0,0,0a20.05,20.05,0,0,0,4.51.23.19.19,0,0,0,0,.1c0,.94-.11,1.89-.16,2.83A22.43,22.43,0,0,1,61,55.9Zm5.28.2-.61,0c0-.94.11-1.88.16-2.82a.11.11,0,0,0,0-.11,28.73,28.73,0,0,0,4-.56l0,3A23.47,23.47,0,0,1,66.28,56.1ZM70,55.59l0-3,1.16-.27c.34-.09.8-.22,1.31-.39h0c-.09,1-.18,2-.28,3-.15.06-.31.11-.45.15C71.18,55.3,70.59,55.46,70,55.59Zm4.51-1.88V51l.38-.29c0,.85,0,1.7,0,2.55A2.47,2.47,0,0,1,74.51,53.71Z"/><path class="cls-1" d="M60.07,48c-.16,0-.16.23,0,.25l.64.08a7.44,7.44,0,0,0-.75.36l-1.5-.26c-.16,0-.22.22-.06.25l1.23.2c-.54.35-.74.69-.1.92a6.11,6.11,0,0,0,3.2-.39l5,.85c-.66.25-1.37.45-1.73.55a.13.13,0,0,0,.07.24,21.42,21.42,0,0,0,2.28-.69l1.32.23c.16,0,.23-.22.07-.25l-1-.16a3.54,3.54,0,0,0,.85-.51l1,.18c.16,0,.22-.21.07-.24l-.92-.16A.65.65,0,0,0,70,49c-.06-1.28-3.15-1-3.86-.87a12.23,12.23,0,0,0-1.59.37c-.94-.14-1.88-.26-2.82-.38.39-.14.77-.28,1.16-.4.16,0,.09-.3-.06-.25s-.88.29-1.64.59Zm.15,1.57c-1,0-.72-.31-.19-.62l2.07.35A8.36,8.36,0,0,1,60.22,49.52Zm8,.51-5-.84.1,0,1.19-.38c1.52.22,3,.46,4.56.73A3.24,3.24,0,0,1,68.22,50Zm.22-1.63c.8.29,1,.6.84.89-1.39-.25-2.78-.48-4.18-.68A5.62,5.62,0,0,1,68.44,48.4ZM64,48.7l-1.29.39-2.29-.38a7.51,7.51,0,0,1,.69-.31l.14-.06C62.14,48.45,63.06,48.57,64,48.7Z"/><path class="cls-1" d="M71.65,48a3.26,3.26,0,0,1,1.39.45.92.92,0,0,1,.24,1.43c-.11.11.06.29.18.18a1.09,1.09,0,0,0,.08-1.47,2.67,2.67,0,0,0-1.82-.83C71.56,47.69,71.49,47.93,71.65,48Z"/><path class="cls-1" d="M58.36,50.37a3.12,3.12,0,0,1-1.08-.4c-.3-.19-1.08-.71-.72-1.15.1-.13-.08-.31-.18-.18-.78,1,1.22,1.84,1.91,2C58.45,50.65,58.52,50.4,58.36,50.37Z"/><path class="cls-2" d="M13.24,15.49A5.7,5.7,0,0,1,12,18.94L9.48,22a1,1,0,0,0,.85.44l1.17.08c2,.48,3.26,1.45,3.69,2.87a4.83,4.83,0,0,1-.25,3.37,11.27,11.27,0,0,1-2,2.93c-.77.85-1.54,1.69-2.29,2.54a1.62,1.62,0,0,1-.69.46,1.46,1.46,0,0,1-1.61-.29Q7.59,32,6.81,29.61A41.45,41.45,0,0,1,5.5,24.83a1.17,1.17,0,0,1-1-.68.68.68,0,0,1,.06-.55,6.11,6.11,0,0,1,.47-.69,57,57,0,0,0-2.62-8A2.73,2.73,0,0,1,0,14.45c0-.07,0-.19,0-.38a.75.75,0,0,0,0-.42,3.1,3.1,0,0,1,1.48-1.06,23.16,23.16,0,0,1,3.11-.66,9.28,9.28,0,0,1,2.75,0c2.68.31,4.37.95,5.08,1.84A3.16,3.16,0,0,1,13.24,15.49Zm-.81,11a3,3,0,0,0-.13-.62,2.31,2.31,0,0,0-1.06-1.32A7.36,7.36,0,0,0,9,24.48a1.29,1.29,0,0,0-.43.24c.08.18.16.39.24.62a13.42,13.42,0,0,1,.45,1.88,15.77,15.77,0,0,0,.47,1.92,5.63,5.63,0,0,0,.79,1.57,4.75,4.75,0,0,1,.84-1.21,4.92,4.92,0,0,0,.81-1.14A3.81,3.81,0,0,0,12.43,26.48ZM9.8,15c-.33-.67-1.15-1-2.45-1a6.81,6.81,0,0,1-.93-.11,1.46,1.46,0,0,0-.72,0,1.25,1.25,0,0,0-.27.15c.09.33.19.68.32,1s.48,1.31,1,2.46.73,1.9.91,2.51a1.46,1.46,0,0,0,.56-.52c.22-.29.36-.46.39-.49a4.52,4.52,0,0,0,1.24-1.88A2.78,2.78,0,0,0,9.8,15Z"/><path class="cls-2" d="M30.61,24.57a.45.45,0,0,1,.15.24c.11.45-.3.9-1.21,1.37a43.76,43.76,0,0,1-4.93-2.67,44.08,44.08,0,0,0-5.07-2.73c.08.51.33,1.85.76,4a20.76,20.76,0,0,1,.54,4,1.85,1.85,0,0,0-.33.25.82.82,0,0,1-.5.24,1.66,1.66,0,0,1-1.83-1.37A6.92,6.92,0,0,1,18,26.69c-.09-.58-.14-.94-.16-1.08-.24-1.13-.58-2.47-1-4l-.92-3.13a39,39,0,0,1-1.45-6.74c-.13-1.25,1-2.17,3.35-2.72a4.22,4.22,0,0,1,3.48.75,4.64,4.64,0,0,1,2,2.72,4.51,4.51,0,0,1-.43,3A7.06,7.06,0,0,1,21,18c-.33.29-.46.56-.39.79s.37.49.9.72l1.19.49s1.44.67,4.15,2A14.69,14.69,0,0,1,30.61,24.57ZM20.77,13.14a3.55,3.55,0,0,0-.19-1,1.89,1.89,0,0,0-2.49-1c-.52.14-.81.37-.86.7a8.16,8.16,0,0,0,.3,1.69c.07.25.29.89.64,1.91a15.84,15.84,0,0,1,.54,1.94C20.12,15.72,20.82,14.3,20.77,13.14Z"/><path class="cls-2" d="M39.74,21a2.35,2.35,0,0,1,.34.79,1.36,1.36,0,0,1-.33,1.13c-.29.36-.5.54-.62.55-1,0-1.82-.64-2.36-2A21.18,21.18,0,0,0,35,18l-2.09.62a3.69,3.69,0,0,0-1.75,1.12A31.81,31.81,0,0,0,31,23.13a22.31,22.31,0,0,1-.25,3.48c-.08.39-.39.56-.95.53-.71-.05-1.14-.26-1.27-.62a7,7,0,0,1-.05-3.13,13,13,0,0,0,.29-3.28c0-.18-.2-.34-.54-.49s-.53-.28-.55-.39a.49.49,0,0,1,.06-.34,1.3,1.3,0,0,1,.6-.42c.33-.15.5-.3.51-.44.15-1.07.32-3,.56-5.86a41.08,41.08,0,0,1,.76-5.72c.07-.31.32-.5.74-.59a1.33,1.33,0,0,1,.88.09,3.38,3.38,0,0,1,1.62,1.87q.44,1.17.84,2.34A116.31,116.31,0,0,0,39.74,21Zm-5.66-4.73a17.32,17.32,0,0,0-.92-2.35c-.38-.73-.75-1.48-1.11-2.22a47.62,47.62,0,0,0-.6,5.23A21.07,21.07,0,0,1,34.08,16.25Z"/><path class="cls-2" d="M58.18,6.71a5.62,5.62,0,0,1-1.86,3.13l-3,2.48a1,1,0,0,0,.73.6l1.12.31c1.88.88,2.88,2.08,3,3.55a4.79,4.79,0,0,1-.9,3.25,11.05,11.05,0,0,1-2.5,2.48c-.91.67-1.81,1.35-2.71,2a1.64,1.64,0,0,1-.76.31,1.44,1.44,0,0,1-1.51-.61q-.28-2.5-.57-5a40.05,40.05,0,0,1-.34-5c-.48-.22-.75-.5-.8-.86a.63.63,0,0,1,.17-.52,4.07,4.07,0,0,1,.59-.58,59,59,0,0,0-1-8.35,2.66,2.66,0,0,1-2.24-1c0-.08,0-.2.06-.38a.8.8,0,0,0,.1-.4,3.06,3.06,0,0,1,1.64-.75,25.62,25.62,0,0,1,3.14,0,9.32,9.32,0,0,1,2.68.5c2.54.84,4,1.8,4.56,2.82A3.17,3.17,0,0,1,58.18,6.71ZM55.25,17.32a2.64,2.64,0,0,0,0-.63,2.33,2.33,0,0,0-.77-1.52,7.35,7.35,0,0,0-2.15-.5,1.19,1.19,0,0,0-.46.15c0,.2.08.41.11.65A18.42,18.42,0,0,1,52,17.41a16.58,16.58,0,0,0,.07,2,5.73,5.73,0,0,0,.47,1.7,4.65,4.65,0,0,1,1.05-1,4.64,4.64,0,0,0,1-.95A3.84,3.84,0,0,0,55.25,17.32Zm-.31-11.8C54.75,4.8,54,4.3,52.76,4.05a7.75,7.75,0,0,1-.87-.29,1.41,1.41,0,0,0-.7-.16,1,1,0,0,0-.29.09c0,.34.05.7.1,1.08s.22,1.38.46,2.6.33,2,.39,2.65a1.45,1.45,0,0,0,.64-.4c.28-.24.44-.38.48-.4a4.55,4.55,0,0,0,1.57-1.6A2.75,2.75,0,0,0,54.94,5.52Z"/><path class="cls-2" d="M71.22,2.56a34.54,34.54,0,0,1-1.11,5.66c-.84,3.18-1.3,5.1-1.41,5.77a14.78,14.78,0,0,1-2.33,5.66,3.46,3.46,0,0,1-2.67,1.74,2.31,2.31,0,0,1-2.2-1.54,17.47,17.47,0,0,1-1.77-6.51,44.54,44.54,0,0,1,0-5.65,13.86,13.86,0,0,1-.19-1.85c-.11-1.24.37-1.91,1.43-2a1.8,1.8,0,0,1,.73.11c.26.09.52.18.77.29.1,1,.17,2.51.23,4.49s.11,3.65.18,4.59.18,1.9.3,2.71a18.63,18.63,0,0,0,.74,2.36,10.07,10.07,0,0,0,1.82-3.88c.14-.53.39-2,.77-4.32A17.24,17.24,0,0,1,67.65,6,5.26,5.26,0,0,0,68,4.38a5.5,5.5,0,0,1,.32-1.63A1.32,1.32,0,0,1,69.52,2,2,2,0,0,1,71.22,2.56Z"/><path class="cls-2" d="M81.77,12.15c-.22.46-.42.92-.62,1.37a4.87,4.87,0,0,1-.83,1.29q-1,1.17-1.95,2.31a8.7,8.7,0,0,1-2.07,1.94c-.2.24-.42.5-.66.76a1.08,1.08,0,0,1-.74.41,1.52,1.52,0,0,1-.43-.08l-.55-.2a.77.77,0,0,1-.43-.38c-.08-.84-.14-1.74-.16-2.7s0-2.44,0-4.38,0-3.4,0-4.38c0-1.3-.12-2.49-.26-3.56l-.75-.67a1.07,1.07,0,0,1-.46-.71.8.8,0,0,1,.06-.3.82.82,0,0,1,.72-.44q.43-.08.87-.12A13.79,13.79,0,0,1,79.4,5.06a6.13,6.13,0,0,1,1.28,1.26,6.7,6.7,0,0,1,1.53,4A4.18,4.18,0,0,1,81.77,12.15Zm-2.3-3.22c-.2-1.26-1.36-2.38-3.53-3.31-.1,3.35-.08,6.89,0,10.63,2.33-2.3,3.55-4.44,3.55-6.48A5.93,5.93,0,0,0,79.47,8.93Z"/><path class="cls-2" d="M95.33,11.83a16,16,0,0,0-1.45,4.86c-.21,1.69-.42,3.38-.61,5.07q-.1.75-1,.69a1.47,1.47,0,0,1-.52-.12,2,2,0,0,1-1.21-2.08A11.57,11.57,0,0,1,90.68,19a9.4,9.4,0,0,0,.19-1.23c.11-.58.26-1.44.45-2.59a15.57,15.57,0,0,1-5,2.7,2.41,2.41,0,0,1-.75.09,3.45,3.45,0,0,1-2.63-1.61,3.4,3.4,0,0,1-.66-2.17,8.11,8.11,0,0,1,.58-2.67,28.71,28.71,0,0,1,5.8-9.35C90,.66,91.19,0,92.21,0s1.39.38,1.46,1A.91.91,0,0,1,93,2c-.81.34-1.23.53-1.27.56a26.42,26.42,0,0,0-5.37,7,10.85,10.85,0,0,0-1.51,4.85,7,7,0,0,0,0,.79.7.7,0,0,1,.18.28c.08.18.19.23.34.18a32.29,32.29,0,0,0,6.5-3.85,3.45,3.45,0,0,0,.82-1.33A1.17,1.17,0,0,1,94,9.72c-.17,0,0,0,.53,0,.26,0,.43,0,.51.15a2.52,2.52,0,0,1,.51,1.42A1.38,1.38,0,0,1,95.33,11.83Z"/><path class="cls-2" d="M109.43,5.72c-.85.19-2.1.38-3.72.6A30.72,30.72,0,0,0,102,7a13.74,13.74,0,0,0-.76,3.42,3.85,3.85,0,0,0,1.17.3,12.07,12.07,0,0,0,1.53,0,14,14,0,0,1,1.54,0,3.13,3.13,0,0,1,1.5.54,2.23,2.23,0,0,1,.36.84.37.37,0,0,1-.27.29,4.23,4.23,0,0,0-.5.37.79.79,0,0,1-.67.16,16.26,16.26,0,0,1-2.48-.1,7.35,7.35,0,0,0-2.43.11,13.76,13.76,0,0,0-.94,3.44,3.27,3.27,0,0,0,.12,1.39c.92.76,2.58,1.2,5,1.38a.87.87,0,0,0,.56-.16.81.81,0,0,1,.49-.16c.6,0,.93.42,1,1.39a1.17,1.17,0,0,1-.28.86.92.92,0,0,1-.81.33,26.9,26.9,0,0,1-6.41-1.27,3.35,3.35,0,0,1-1.5-1.07,2.67,2.67,0,0,1-.67-1.68,19.21,19.21,0,0,1,.39-4.67c-.57-.42-.81-.81-.71-1.17,0-.18.21-.33.53-.45s.52-.26.57-.42.23-1.1.5-2.82c-1.2-.32-1.76-.78-1.69-1.4s.48-1,1.26-1.28,1.45-.4,2.18-.6a17.11,17.11,0,0,1,3.22-.71c1.09-.14,2.2-.27,3.31-.38a3.1,3.1,0,0,1,.41,0,4.56,4.56,0,0,1,2,.89c0,.08,0,.24.11.47a1.54,1.54,0,0,1,.07.49A.44.44,0,0,1,109.43,5.72Z"/><path class="cls-2" d="M127.46,5a1.55,1.55,0,0,1-1.38,1c-1.49,0-4.06-.06-7.7-.15-1.27,4.83-2.16,8.89-2.7,12.17-.21,1.24-.4,2.47-.56,3.68a2.64,2.64,0,0,1-.2.84.58.58,0,0,1-.69.35,2,2,0,0,1-1.35-1,2.69,2.69,0,0,1-.4-1.66c.07-.74.16-1.51.29-2.32q.3-2,1.24-6.16c.61-2.67,1-4.73,1.22-6.15a13.36,13.36,0,0,0-2.5-.23,24.57,24.57,0,0,1-2.54-.11,4.36,4.36,0,0,1-2.56-1.12c-.2-.55-.3-.84-.3-.86a.72.72,0,0,1,.29-.42,23.93,23.93,0,0,1,4.46,0,14.43,14.43,0,0,0,4.49-.3,9.66,9.66,0,0,0,2.61.8,13.34,13.34,0,0,0,2.93.18,20.05,20.05,0,0,0,2.12,0,6.51,6.51,0,0,1,2,.22c.4.08.54.27.41.55C127.27,4.44,127.54,4.68,127.46,5Z"/><path class="cls-2" d="M125.42,21c0,.75-.1,1.21-.41,1.4a1.44,1.44,0,0,1-1.19.08,2,2,0,0,1-1.06-.77,1.49,1.49,0,0,1-.34-1.17.94.94,0,0,1,.45-.6.78.78,0,0,1,.7-.15q.59.15,1.17.33A1,1,0,0,1,125.42,21Z"/><path class="cls-2" d="M145.58,10.1q-1.59,3.72-3.12,7.5a69,69,0,0,0-2.75,7.54q-.28,1-.51,2a1,1,0,0,1-.58.71,1.32,1.32,0,0,1-1,.1q-.93-.26-1.23-1.65c-.64-2.76-1.25-7-2-12.67,0-.13,0-.2-.11-.21s-.28.07-.39.33a66.79,66.79,0,0,0-2.68,8.64c-.36,1.48-.69,3-1,4.55a1.22,1.22,0,0,1-.8,1,.62.62,0,0,1-.5.1,1.17,1.17,0,0,1-.49-.3l-.51-.4a.79.79,0,0,1-.32-.81c0-.32.11-.65.16-1,.19-1.11.43-2.25.7-3.44.48-2.07,1.19-4.62,2.17-7.66,1.5-4.62,2.35-7.17,2.51-7.67s.58-.54,1.37-.35a2.85,2.85,0,0,1,1.47,1.13,38,38,0,0,1,1.1,6.41,44.86,44.86,0,0,0,1,6.46c1-2.48,2.57-6.22,4.72-11.21.17-.36.54-.47,1.11-.3a3.21,3.21,0,0,1,.67.28l.57.32A.67.67,0,0,1,145.58,10.1Z"/><path class="cls-2" d="M158.28,16.17A33.06,33.06,0,0,1,155.13,21c-2,2.63-3.12,4.24-3.48,4.82a14.68,14.68,0,0,1-4.3,4.37,3.47,3.47,0,0,1-3.16.62,2.35,2.35,0,0,1-1.49-2.26,17.13,17.13,0,0,1,.77-6.69,41.84,41.84,0,0,1,2.07-5.27,12.48,12.48,0,0,1,.5-1.79c.36-1.19,1.06-1.63,2.09-1.31a2,2,0,0,1,.64.37l.62.56c-.29,1-.78,2.4-1.46,4.26s-1.25,3.43-1.54,4.33-.54,1.83-.73,2.63a19.11,19.11,0,0,0-.18,2.46,10.22,10.22,0,0,0,3.16-2.92c.32-.44,1.09-1.68,2.33-3.71A16.9,16.9,0,0,1,153.64,18a5.09,5.09,0,0,0,.9-1.37,5.21,5.21,0,0,1,.91-1.4A1.31,1.31,0,0,1,156.9,15,2,2,0,0,1,158.28,16.17Z"/><path class="cls-1" d="M80,32.61,81.4,32c.39-.17.06-.74-.33-.57l-1.61.72a4.51,4.51,0,0,0-.52-.29,3.44,3.44,0,0,0-4.43,1.59c-.67,1.64.93,3.3,2.2,4.07l.07,0c1.56.78,4,1,4.73-1C82,35.21,81.16,33.61,80,32.61Zm-.67,4.84A3.55,3.55,0,0,1,77,37a4,4,0,0,1-2-2.3c-.4-1.71,1.93-2.75,3.3-2.32A4.32,4.32,0,0,1,80.87,35,1.84,1.84,0,0,1,79.37,37.45Z"/><path class="cls-1" d="M77.36,33.64l-.78,1.27a.33.33,0,0,0,.57.34c.26-.43.51-.86.77-1.28A.33.33,0,0,0,77.36,33.64Z"/><path class="cls-1" d="M78.54,34.41l-.27,1.26c-.08.41.55.59.64.18l.27-1.26C79.26,34.18,78.63,34,78.54,34.41Z"/><path class="cls-1" d="M78.82,28.66a.9.9,0,0,1,1.62.7c-.1.41.54.59.63.18a1.6,1.6,0,0,0-.8-1.8,1.58,1.58,0,0,0-1.91.45C78.11,28.52,78.57,29,78.82,28.66Z"/><path class="cls-1" d="M84,30.81c-.38.15-.21.79.18.63a1.33,1.33,0,0,1,1.89,1.39c-.06.41.57.59.63.17A2,2,0,0,0,84,30.81Z"/><path class="cls-1" d="M106.26,36.37c-.16-.39-.8-.22-.63.17.63,1.5-.53,3.42-2.3,2.84a1.85,1.85,0,0,1-1-.75c1-.24,1.85-.89,1.51-2a1.12,1.12,0,0,0-1.46-.71,1.68,1.68,0,0,0-1,1.47,2.41,2.41,0,0,0,0,.71A3.33,3.33,0,0,1,101,38h0a11.64,11.64,0,0,0-.23-3.88c-1-4.52-4.51-8-8.52-10.1a17.21,17.21,0,0,0-7.9-2.09,13.84,13.84,0,0,0-2.72-3.37.33.33,0,0,0-.52.06,22.21,22.21,0,0,0-1.62,4.55l-.4.24c-3.66,2.31-5.71,6.81-6.1,11a10.2,10.2,0,0,0,.7,4.81,35,35,0,0,0-3.21,3.46c-.15.19-.09.6.23.56l2.61-.34c-.17.81-.35,1.61-.52,2.42a.33.33,0,0,0,.55.32c1-.82,1.88-1.79,2.87-2.63a15.12,15.12,0,0,0,4.22,3c-.34,1.17-.72,2.33-1.13,3.48a.33.33,0,0,0,.4.4l1.85-.72a11.84,11.84,0,0,0,.34,1.93.33.33,0,0,0,.6.08c.75-1.23,1.46-2.48,2.15-3.75a19.92,19.92,0,0,0,5.11.43c-.28.92-.59,1.83-.92,2.74a.34.34,0,0,0,.41.41L91,50.25a11.65,11.65,0,0,0,.34,1.93.32.32,0,0,0,.59.08c1.29-2.07,2.7-4.07,3.82-6.24a10.66,10.66,0,0,0,5.06-7.38,2.72,2.72,0,0,0,.88.08,2.54,2.54,0,0,0,2.62,1.37A2.65,2.65,0,0,0,106.26,36.37ZM90,24.35l.14.12H90A.11.11,0,0,0,90,24.35Zm.47.11s0,0,0,0l-.43-.35a.13.13,0,0,0-.2.1l-.11-.11c-.1-.1-.26.06-.16.16l.27.24s0,0,0,0h-.11l0,0-.43-.34-.06,0,1.34-.16.17.07c-.06,0-.09.12,0,.17l.32.26c.11.09.27-.07.16-.16L91,24.12l.87.43A11.12,11.12,0,0,0,90.5,24.46Zm-1.15.08-.54-.41.37,0c-.07,0-.11.11,0,.17l.33.26ZM81.4,19.33a12.69,12.69,0,0,1,1.42,1.61A2.87,2.87,0,0,0,82,21a.11.11,0,0,0,.06.22,2.36,2.36,0,0,1,1-.06c.18.24.35.5.51.76a10,10,0,0,0-3.34.82A21,21,0,0,1,81.4,19.33ZM73.63,42.18l-2.24.3c.42-.51.87-1,1.33-1.47A4.43,4.43,0,0,1,75,43.08c-.5.47-1,1-1.5,1.43L74,42.6C74,42.42,73.86,42.15,73.63,42.18Zm1.58.74a4.66,4.66,0,0,0-2.32-2.08l1-1a11.39,11.39,0,0,0,1.8,2.67Zm6.87,5.75c0-.19-.2-.4-.41-.31l-1.6.63c.22-.63.43-1.26.62-1.9a5.31,5.31,0,0,1,2.56,1.3c-.32.57-.66,1.14-1,1.71A11.17,11.17,0,0,1,82.08,48.67Zm9.54,1.11a.33.33,0,0,0-.41-.31l-1.61.63c.21-.6.41-1.2.6-1.81a4.88,4.88,0,0,1,2.84,1c-.42.64-.83,1.28-1.24,1.93A11.81,11.81,0,0,1,91.62,49.78Zm3.79-4.31a.27.27,0,0,0-.19.15c-.62,1.21-1.33,2.37-2.06,3.51a5.1,5.1,0,0,0-2.89-1.05q.48-1.53.87-3.09a.33.33,0,0,0-.63-.17c-.2.78-.42,1.56-.65,2.34a19,19,0,0,1-5-.36c.32-.6.63-1.2.94-1.81.19-.37-.38-.71-.57-.33-.6,1.19-1.22,2.37-1.88,3.53a5.54,5.54,0,0,0-2.6-1.31c.1-.32.19-.64.29-1l0-.11c.18-.64.36-1.28.53-1.93A.33.33,0,0,0,81,43.7c-.14.56-.28,1.1-.44,1.65-5-2.48-8-7.1-6.68-12.78,1.17-5.21,4.84-10.07,10.63-10a15.68,15.68,0,0,1,5.68,1.2l-1.54.18a.18.18,0,0,0-.07.28l.7.53a.08.08,0,0,0,.08,0h0a8.94,8.94,0,0,1,3.18.13,19.8,19.8,0,0,1,2,1.31,11.89,11.89,0,0,0-4.41.07c-.41.09-.24.72.17.64a10.79,10.79,0,0,1,3.84-.12A16.37,16.37,0,0,1,92,29.65c-.29.31.17.77.46.46a16.84,16.84,0,0,0,2.46-3.4.29.29,0,0,0,0-.16,16.35,16.35,0,0,1,3.18,3.38C101.65,35.06,100.9,42.1,95.41,45.47Zm7.08-8.09c.41.37.34.59-.22.66l-.13,0a1.57,1.57,0,0,1-.06-.53C102.13,36.79,102.27,36.73,102.49,37.38Z"/><path class="cls-1" d="M92.75,27.14a3.56,3.56,0,0,0-2.14.45l0,0c-.07,0-.13.06-.09.13A4.53,4.53,0,0,0,91.22,29c0,.1.1.2.18.11l1.43-1.77A.11.11,0,0,0,92.75,27.14Zm-.22.21L91.36,28.8a4.13,4.13,0,0,1-.63-1A3.36,3.36,0,0,1,92.53,27.35Z"/><path class="cls-1" d="M90.74,24.23,90.47,24c-.12-.08-.23.11-.12.19l.28.19C90.75,24.5,90.86,24.31,90.74,24.23Z"/><path class="cls-1" d="M80.57,44.59a10.2,10.2,0,0,1-4.18-4.3c-.06-.12-.26,0-.19.12a10.38,10.38,0,0,0,4.26,4.37A.11.11,0,1,0,80.57,44.59Z"/><path class="cls-1" d="M79.39,42.6l-.89-.82c-.1-.09-.26.07-.15.16l.89.82C79.34,42.86,79.5,42.7,79.39,42.6Z"/><path class="cls-1" d="M97.89,31.46a6.82,6.82,0,0,1,1,4.8c0,.14.2.2.22.06a7.07,7.07,0,0,0-1-5A.11.11,0,0,0,97.89,31.46Z"/><path class="cls-1" d="M98.81,37.75a1.58,1.58,0,0,1-.07.86c0,.14.17.2.22.06a1.92,1.92,0,0,0,.07-1C99,37.55,98.79,37.61,98.81,37.75Z"/><path class="cls-1" d="M98.42,40.46l-.21.39a.11.11,0,1,0,.19.11l.21-.39C98.68,40.44,98.48,40.33,98.42,40.46Z"/><path class="cls-1" d="M96.65,35.22a6.73,6.73,0,0,1,0,2.57c0,.14.19.2.22.06a7,7,0,0,0,0-2.69C96.84,35,96.62,35.08,96.65,35.22Z"/><path class="cls-1" d="M96.19,36.58c0-.14-.25-.08-.21.06l.14.53c0,.14.25.08.21-.06Z"/><path class="cls-1" d="M93.88,45.88c-.24.56-.48,1.11-.73,1.66-.05.13.14.25.2.12L94.07,46C94.13,45.86,93.94,45.75,93.88,45.88Z"/><path class="cls-1" d="M94.24,45l0,.12c0,.14.19.2.22.06l0-.12C94.48,45,94.27,44.9,94.24,45Z"/><path class="cls-1" d="M83.9,45.7l-.57.94c-.08.12.11.23.19.11.19-.31.38-.63.58-.94A.11.11,0,0,0,83.9,45.7Z"/><path class="cls-1" d="M84.36,44.77a.12.12,0,0,0,0,.23A.12.12,0,0,0,84.36,44.77Z"/><path class="cls-1" d="M82.32,30.43l-.42-.09c-.14,0-.2.18-.06.21l.42.09C82.4,30.67,82.46,30.46,82.32,30.43Z"/><path class="cls-1" d="M82.5,29.72a.11.11,0,0,0,0,.22A.11.11,0,0,0,82.5,29.72Z"/></g></g></svg>