<svg xmlns="http://www.w3.org/2000/svg" viewBox="0 0 218.11 131.1"><defs><style>.cls-1{fill:#535353;}</style></defs><g id="Layer_2" data-name="Layer 2"><g id="Layer_1-2" data-name="Layer 1"><path class="cls-1" d="M171.61,8.1a1,1,0,0,0-.33-.46c-3-2.49-6.21-4.79-9.19-7.35a1.09,1.09,0,0,0-.86-.28A1.62,1.62,0,0,0,161,0c-10.64,1.55-19,10.56-24.79,19-3.57,5.27-10,15.22-7.41,22.16a1.41,1.41,0,0,0,.72,1c2.39,2,4.81,4,7.3,5.86a4.46,4.46,0,0,0,1.53,1.07c3.76,1.57,8.32-1.81,11.08-3.92,9.12-7,17.88-17.7,21.81-28.6C172.12,14.19,173.28,10.42,171.61,8.1Zm-12.14.8c-.61.36-1.2.74-1.78,1.12L152.2,5.74A26.25,26.25,0,0,1,155.46,4l5.66,4.07C160.52,8.34,160,8.63,159.47,8.9ZM162,7.65l-5.64-4.06c.59-.24,1.18-.45,1.79-.64l5.19,4.16C162.86,7.28,162.41,7.46,162,7.65Zm2.27-.86-5.13-4.11c.62-.17,1.24-.31,1.88-.42,1.67,1.41,3.38,2.76,5.1,4.1A12.36,12.36,0,0,0,164.25,6.79ZM147.11,9.6a.44.44,0,0,0,.15.19l1.79,1.27c.43.31.85-.41.42-.72L147.7,9.08a38.11,38.11,0,0,1,3.75-2.88L157,10.5q-2,1.37-3.83,2.9l-.93-.74c-.41-.33-1,.25-.59.59l.88.71a45.89,45.89,0,0,0-7.36,8.2q-2.55-2.32-5.12-4.63A55.81,55.81,0,0,1,147.11,9.6Zm-8.29,9.56.7-1,5.09,4.61,0,0a82.42,82.42,0,0,0-5.11,8.28L134,26.57C135.67,23.63,137.54,21,138.82,19.16ZM130.31,37l5.43,4.35c0,.18-.08.37-.11.55s0,.27,0,.41l-5.26-4.22C130.3,37.72,130.3,37.35,130.31,37Zm.69-3.75,5.43,5.24c-.19.65-.37,1.3-.51,1.94l-5.24-4.2a.45.45,0,0,0-.3-.1A16.53,16.53,0,0,1,131,33.23Zm5.72,4.36-5.43-5.24a33.84,33.84,0,0,1,2.3-5l5.57,4.56A41.11,41.11,0,0,0,136.72,37.59Zm-5.85,2.82a6.23,6.23,0,0,1-.37-1.13l5,4c0,.3,0,.61,0,.91C133.93,43,132.39,41.71,130.87,40.41Zm35-17.84A74.29,74.29,0,0,1,149.84,42c-2.33,2-7.54,6.71-10.75,4.66-4-2.54.85-10.77,2.36-13.82,4.5-9.08,10.35-16.8,19.14-22,3.33-1.79,9.77-4.18,9.44,2C169.85,16.11,167.49,19.83,165.91,22.57Z"/><path class="cls-1" d="M146,42.51a8.14,8.14,0,0,1-2.87,1.92c-1.33.4-3,0-3.22-1.64-.05-.47-.8-.48-.75,0a2.77,2.77,0,0,0,2.46,2.53c1.94.27,3.56-1.08,4.91-2.28C146.89,42.72,146.35,42.19,146,42.51Z"/><path class="cls-1" d="M161.67,12.3c-.38.31.16.84.53.53a8,8,0,0,1,2.35-1.39c.86-.32,3-1,3.38.38a.38.38,0,0,0,.73-.21C167.86,8.56,163.06,11.13,161.67,12.3Z"/><path class="cls-1" d="M152.11,23.15l-2.77-.57c-.48-.1-.68.63-.2.73l2.29.47a22.85,22.85,0,0,0-2.29,2.49L146,25.91c-.48-.05-.48.71,0,.76l2.67.29c-1.33,1.88-3.69,5.49-2.32,7.74,1.77,2.9,6.75,0,8.87-.73.46-.16.26-.89-.2-.73-1.52.53-3.67,1.79-5.28,1.79-5.36,0-1.65-5.93-.2-8l6.07.67c.49.06.48-.7,0-.75L150,26.36a24.77,24.77,0,0,1,2.28-2.4l7.47,1.54c.48.1.68-.63.2-.73l-7-1.43c3.57-3.12,8.71-6.08,10.68-1.49.19.44.84.06.65-.39C162,16.11,156.08,19.58,152.11,23.15Z"/><path class="cls-1" d="M210.63,75.69c-11.11-9.73-28.54-8.06-36.56,3.38a1.29,1.29,0,0,0-.27.33l-.29.53a21,21,0,0,0-1.43,2.65c-2.33,4.41-4.42,9.1-4.44,14.09A22.3,22.3,0,0,0,179,116.11c13.8,7.7,32.76.65,37.59-14.61l0-.15C220.18,92.84,217.14,82.11,210.63,75.69Zm-11.11,38.22a24.25,24.25,0,0,0,8-2.78,25.13,25.13,0,0,1-9.87,5.08l1.8-2.08A.33.33,0,0,0,199.52,113.91Zm-13.91-41.2a23.88,23.88,0,0,1,23.45,4.55c8.73,8.61,9.68,24-1.41,31.08-11.33,7.23-28.66,4.19-34-9a20.31,20.31,0,0,1,.71-16.39l1-1.82A19.89,19.89,0,0,1,185.61,72.71Zm-14.77,30.18L172,101.3a21.34,21.34,0,0,0,1.24,2.12L171.66,105A19.52,19.52,0,0,1,170.84,102.89ZM170,94.64a19.36,19.36,0,0,0,1.6,5.89l-1,1.43A19.2,19.2,0,0,1,170,94.64Zm8.8,18.78a19.76,19.76,0,0,1-6.8-7.72l1.65-1.65c4.25,5.85,11.55,9.51,19.14,10.13L190.23,117a23.56,23.56,0,0,1-2.9-.3l1.94-2.26c.31-.36-.22-.9-.53-.53l-2.26,2.63A21.84,21.84,0,0,1,178.8,113.42Zm12.43,3.63,2.32-2.58a.35.35,0,0,0,.09-.23,28.19,28.19,0,0,0,4.86-.18l-2.12,2.45A25.44,25.44,0,0,1,191.23,117.05Z"/><path class="cls-1" d="M191.5,88.74c.68,4.19,1.26,8.39,1.77,12.6a15.63,15.63,0,0,1-6.15-4.87c-.31-.38-.84.16-.54.53a15.87,15.87,0,0,0,6.78,5.16c.11.91.23,1.81.33,2.72.05.47.81.48.76,0-.09-.84-.21-1.66-.3-2.49a8.69,8.69,0,0,0,3.07.21,8.54,8.54,0,0,0,3.81-1.39c.27,1,.54,2,.82,3a.37.37,0,0,0,.72-.2c-.29-1.09-.59-2.18-.89-3.27a6.39,6.39,0,0,0,2.26-3.51c.78-3.47-1.52-6.82-4.57-8.24a7.27,7.27,0,0,0-1-.38c-.75-2.77-1.5-5.53-2.26-8.3a35.32,35.32,0,0,1,3.58,1.52c.44.2.83-.45.39-.65a34.2,34.2,0,0,0-4.19-1.68c-.42-1.53-.84-3.06-1.25-4.6a.38.38,0,0,0-.73.2l1.14,4.18a9.36,9.36,0,0,0-4.52-.12c-.28-1.43-.54-2.86-.84-4.29-.1-.48-.83-.27-.73.2.3,1.44.57,2.88.85,4.32a6.63,6.63,0,0,0-1.14.55c-2,1.22-3.29,3.87-2.29,6.16S189.38,88.68,191.5,88.74Zm5.14,13.17a8.19,8.19,0,0,1-2.59-.31q-.77-6.45-1.79-12.85c1,0,2,0,2.88,0a10.42,10.42,0,0,1,2.64.54q1.5,5.52,3,11A6.85,6.85,0,0,1,196.64,101.91Zm6.69-6.16a7.49,7.49,0,0,1-1.92,4l-2.76-10.12C201.3,90.71,203.79,92.8,203.33,95.75ZM190.8,80.13a7.09,7.09,0,0,1,4.46-.09c.75,2.78,1.51,5.55,2.27,8.33a21.81,21.81,0,0,0-3.77-.36c-.54,0-1.08,0-1.62,0-.43-2.64-.91-5.28-1.41-7.91Zm-.82.13q.75,3.87,1.39,7.76c-.55,0-1.1-.1-1.65-.19C187.1,83.4,187.2,80.88,190,80.26Z"/><path class="cls-1" d="M185.42,106.54c.42.23.81-.42.38-.65-8.69-4.68-11.34-14.84-6.15-23.22.26-.41-.4-.79-.65-.38A16.84,16.84,0,0,0,185.42,106.54Z"/><path class="cls-1" d="M193.66,108.44l-3.11-.39c-.48-.06-.48.7,0,.76l3.11.38C194.14,109.25,194.14,108.5,193.66,108.44Z"/><path class="cls-1" d="M204.73,79.19A14.92,14.92,0,0,1,212,89.42c.09.48.81.28.72-.2a15.56,15.56,0,0,0-7.6-10.68A.38.38,0,0,0,204.73,79.19Z"/><path class="cls-1" d="M212.31,96.61c-.08.47.65.68.73.2l.39-2.34c.08-.47-.65-.67-.73-.2Z"/><path class="cls-1" d="M124.23,92.56c5.51.87,11.14,3,16.78,2.59,10-.77,14.27-11.82,9.09-19.88-4.84-7.52-14.89-8.54-23-7.43C111.94,69.92,99.69,81.12,84.26,82,72.15,59.91,49.55,36.82,22.41,44.65a1,1,0,0,0-.62.25A1.06,1.06,0,0,0,21.37,46a1.1,1.1,0,0,0,.19.5,1.16,1.16,0,0,0,.38.35L71.62,80c1.82,1.21,3.62,2.54,5.47,3.76q-9.32-1.23-18.63-2.43c.22-.88.46-1.75.68-2.63a1.06,1.06,0,0,0,0-.56,1,1,0,0,0-.77-.81A221.79,221.79,0,0,0,19,71a.91.91,0,0,0-1,.58,1.12,1.12,0,0,0-.47.57c-.5,1.31-1,2.6-1.55,3.89-2.78-.35-5.56-.78-8.35-1a1,1,0,0,0-.36,0A1.13,1.13,0,0,0,5.6,76.24a8.18,8.18,0,0,0,2.27,3.11,39.13,39.13,0,0,0,5,4.13c-2.16,4.88-4.36,9.75-6.28,14.74a1,1,0,0,0-.17.45,1,1,0,0,0-.06.56c-.53,5.45,4.1,8,9,8.93s9.7,1.42,14.53,2.12c3.7.53,7.54,1.39,11.3,1.29,6.46-.19,9.51-4,11.34-9.86.78-2.47,1.54-4.94,2.3-7.42a72,72,0,0,0,24.5-8l2.35.31a95,95,0,0,1,25.5,23.65c5,6.91,8.58,17.8,17.71,20.35,14.79,4.13,24.68-16.46,12.39-25.61-4.26-3.18-9.27-3.14-14.27-4.1-6.52-1.25-12.57-4.54-18.61-7.17-4.77-2.07-9.9-3.93-14.85-6.05,5,.67,9.89,1.33,14.83,2C111,90.59,117.62,91.52,124.23,92.56Zm16.15-21.79c7.65,2.47,13.74,12.12,7.13,19.16-5.62,6-15.22,1.71-22,.59s-13.7-2-20.56-3c-1.75-.25-3.5-.47-5.25-.72.06-2.17.13-4.35.19-6.53,1.32-.54,2.63-1.12,3.93-1.7l-.08,5a.42.42,0,0,0,.84,0c0-1.79.05-3.58.08-5.37,6.37-2.9,12.68-6.07,19.62-7.58C129.46,69.46,135.26,69.12,140.38,70.77ZM93.14,82.65c1-.28,2-.6,3-.94.15,1.55.29,3.1.43,4.65l-4-.54a.43.43,0,0,0,0-.12C92.75,84.68,92.94,83.67,93.14,82.65Zm3.76-1.23c.72-.26,1.43-.54,2.14-.82l-.18,6.08-1.5-.2C97.21,84.79,97.06,83.1,96.9,81.42Zm-4.66,1.49c-.16.85-.32,1.71-.49,2.57a.38.38,0,0,0,0,.24l-6-.82,0-.07c-.12-.23-.25-.46-.36-.69A40.33,40.33,0,0,0,92.24,82.91Zm-9.32,1.6-.26-.14.2-.11H83c.05.09.1.18.14.27Zm-1-2.25-.76.45C80.53,79,76.86,77,73.07,76c-5.38-1.46-9.51-2.1-11.63-8.14-.8-2.28-1-4.71-2.79-6.52s-3.85-2.15-6.07-2.57c-4.78-.88-7.76-1.94-11.47-5.2-4.2-3.71-8.59-8.16-14.54-6.3l-1.46-1C50,40.56,70.46,61.89,81.87,82.26ZM27.48,47.83c6.72-1.55,11.14,5.37,16.11,8.81,4.24,2.94,10.9,1.61,14.47,5.25,2.46,2.49,2.45,6.09,3.86,9-3.77-2.56-7.53-5.12-11.31-7.64ZM69.13,75.77c4.93,1.31,11,2.27,11.25,7.29-.38-.22-.78-.43-1.15-.67C75.84,80.23,72.48,78,69.13,75.77Zm.05,9.16a13.89,13.89,0,0,1-11.91.88c.21-.78.43-1.56.64-2.35ZM9.7,78,9,77.35c2.06.2,4.12.48,6.18.75-.47,1.11-.94,2.21-1.42,3.3A37.1,37.1,0,0,1,9.7,78Zm34.87,30.8c-5.14,2-12.61-.49-17.85-1.25-4.8-.7-19.4-.68-18.21-8.33,2.73-7.19,6.07-14.11,9-21.19a.94.94,0,0,0,.26-.61c.59-1.41,1.16-2.83,1.71-4.25a217.43,217.43,0,0,1,37.18,6c-1.06,4.28-2.25,8.5-3.56,12.71C51.51,97.21,50.46,106.6,44.57,108.84ZM55.5,92c.53-1.78,1-3.57,1.54-5.35A14.72,14.72,0,0,0,70.5,85.1l4.9.64A68,68,0,0,1,55.5,92Zm52.3,5.62c4.3,1.87,8.61,4,13.2,5.11,5.84,1.4,12,.78,16.54,5.47,7.35,7.56,1.14,20.71-9.25,20.65-11.17-.07-15.82-16.07-22-23.21a124.57,124.57,0,0,0-15-14.77C96.81,93.15,102.46,95.26,107.8,97.59Z"/><path class="cls-1" d="M127.75,124.5a7.08,7.08,0,1,0-6.13-8.88.34.34,0,0,0,.08.38.41.41,0,0,0-.23.34C121,120.18,123.73,124.14,127.75,124.5Zm-5.52-8.43a.38.38,0,0,0,.19-.23,6.55,6.55,0,0,1,7.5-4.45,6.24,6.24,0,1,1-3,12.12,6.57,6.57,0,0,1-4.66-7.17A.38.38,0,0,0,122.23,116.07Z"/><path class="cls-1" d="M133.4,86.62c2.57.23,6.89,1.36,8.89-1,1.85-2.16.23-5.32-1.22-7.16-4.35-5.49-12.08-4.3-18.22-3.4-2.84.42-9.72,2.18-7,6.47C118.74,86.1,128.73,86.15,133.4,86.62Zm-13.75-10A12.91,12.91,0,0,1,123,76a46.86,46.86,0,0,1,10-.69c2.89.23,7.19,1.88,8.27,4.94,2.67,7.55-4.9,5.85-7.85,5.59A68.87,68.87,0,0,1,122.54,84c-1.22-.33-5.06-1.14-5.58-2.47C116.14,79.45,118,77.37,119.65,76.63Z"/><path class="cls-1" d="M47.66,34.48c9,6.76,17.19,14.53,26.2,21.29a.87.87,0,0,0,1.26-.11l.08-.06c4.51-3.87,10-7.38,14-11.72a11.42,11.42,0,0,0,2.61-9.24c-.84-5.23-6-7.95-9.75-11-3.43-2.82-7.92-8.58-12.6-9.2-2.55-.34-5,1.12-7,2.53-6,4.22-10.33,10.33-15.06,15.79A1.1,1.1,0,0,0,47.3,34,1.12,1.12,0,0,0,47.66,34.48Zm12-12.16c2.09-2,4.77-4.83,7.72-5.51,4.55-1,9.88,5.67,13.15,8.38,4.26,3.53,10.47,6.72,9,13.29-.77,3.38-3.17,4.91-5.62,6.92-3.19,2.62-6.34,5.3-9.47,8C66,47,58.21,39.77,49.82,33.35,53,29.61,56.08,25.75,59.62,22.32Z"/><path class="cls-1" d="M28.59,78.79A.42.42,0,0,0,28.7,78l-5.2-1.68a.4.4,0,0,0-.49.5s0,0-.05.07l-9.57,21a.43.43,0,0,0,0,.11.07.07,0,0,0,0,0,0,0,0,0,0,0,0,.37.37,0,0,0,.29.43h.1c1.77.38,3.6,0,5.37.42a.44.44,0,0,0,.47-.19c3.2-6.47,5.77-13.23,9-19.69A.43.43,0,0,0,28.59,78.79ZM21.66,92.38c-.61,1.38-1.54,5-3,5.63-.73.32-3.16,0-4.33-.2l9.33-20.53a.09.09,0,0,0,0,0l4.2,1.35s0,0-.05.08C25.61,83.15,23.7,87.79,21.66,92.38Z"/><path class="cls-1" d="M41.59,88.5h-.14c-4-.62-8-.07-12-.72h0A.33.33,0,0,0,29,88c-2.08,4.31-4.12,8.64-6.2,13a.57.57,0,0,0,0,.14.44.44,0,0,0,.09.35h0l.08.06a.18.18,0,0,0,.07,0,.44.44,0,0,0,.15,0h0c4.39.44,8.75,1.18,13.14,1.62.53,0,.53-.78,0-.84-4.18-.41-8.33-1.1-12.51-1.54,1.95-4.06,3.87-8.13,5.82-12.18,3.76.54,7.55.11,11.3.63-1.78,4.25-2.11,9-4,13.19-.22.48.5.91.72.42,2-4.39,2.26-9.35,4.25-13.74a.39.39,0,0,0,0-.14v0s0,0,0,0A.34.34,0,0,0,41.59,88.5Z"/><path class="cls-1" d="M56,33.18l11-11.46c.37-.39-.21-1-.59-.59l-11,11.46C55,33,55.61,33.57,56,33.18Z"/><path class="cls-1" d="M60.83,34.35l8.23-8.78c.37-.39-.22-1-.59-.59l-8.23,8.78C59.88,34.15,60.46,34.74,60.83,34.35Z"/><path class="cls-1" d="M75.53,46.51l6.09-5.37c.4-.35-.19-.94-.59-.59l-6.09,5.37C74.54,46.27,75.13,46.86,75.53,46.51Z"/><path class="cls-1" d="M10.91,56.27l-9.85.94c-1.41.14-1.42,2.37,0,2.23l9.85-.95C12.32,58.36,12.33,56.13,10.91,56.27Z"/><path class="cls-1" d="M2.52,49.61l4.65.88c1.4.27,2-1.87.59-2.14l-4.65-.89C1.71,47.19,1.11,49.34,2.52,49.61Z"/><path class="cls-1" d="M11.78,44.37c1.08.93,2.66-.63,1.58-1.57L8.19,38.34c-1.08-.93-2.66.63-1.57,1.57Z"/></g></g></svg>